<?xml version="1.0" standalone="no"?>
<!DOCTYPE svg PUBLIC "-//W3C//DTD SVG 20010904//EN"
 "http://www.w3.org/TR/2001/REC-SVG-20010904/DTD/svg10.dtd">
<svg version="1.0" xmlns="http://www.w3.org/2000/svg"
 width="798.000000pt" height="798.000000pt" viewBox="0 0 798.000000 798.000000"
 preserveAspectRatio="xMidYMid meet">
<metadata>
Created by potrace 1.14, written by Peter Selinger 2001-2017
</metadata>
<g transform="translate(0.000000,798.000000) scale(0.100000,-0.100000)"
fill="#000000" stroke="none">
<path d="M5490 7968 c-219 -24 -512 -137 -731 -285 -213 -142 -368 -300 -509
-513 -149 -227 -256 -516 -277 -753 -6 -73 -7 -96 -4 -221 l1 -69 138 6 c75 4
157 11 182 18 25 6 52 12 60 14 44 9 183 61 254 94 231 109 448 286 607 496
78 103 128 185 194 320 128 260 178 462 179 722 1 97 -3 165 -9 171 -5 4 -44
5 -85 0z"/>
<path d="M5295 6050 c-114 -16 -134 -20 -206 -35 -40 -9 -119 -30 -174 -47
-105 -31 -148 -47 -410 -149 -272 -105 -363 -131 -465 -130 -111 0 -200 26
-590 176 -208 79 -380 131 -505 149 -187 29 -447 12 -645 -41 -679 -181 -1202
-699 -1424 -1408 -48 -154 -77 -286 -101 -459 -28 -204 -38 -534 -21 -719 34
-370 80 -624 171 -942 29 -103 102 -330 115 -360 5 -11 30 -74 55 -140 133
-339 301 -657 513 -965 81 -117 258 -359 271 -370 4 -3 30 -34 60 -70 166
-202 350 -360 517 -444 156 -77 298 -102 476 -83 140 15 246 47 484 145 341
142 448 166 729 166 278 0 376 -22 708 -162 284 -120 399 -147 607 -144 314 4
599 171 884 517 140 170 356 476 476 675 110 183 251 471 320 650 11 30 25 64
30 75 16 36 60 173 60 188 0 8 -36 32 -85 55 -164 79 -335 203 -480 349 -271
272 -436 613 -484 998 -10 84 -8 428 3 480 4 17 14 66 22 110 82 411 365 823
749 1090 39 27 72 50 75 52 2 2 0 7 -6 11 -5 4 -35 41 -66 82 -76 101 -183
210 -299 305 -223 181 -625 348 -919 380 -30 3 -71 8 -90 11 -58 8 -301 11
-355 4z"/>
</g>
</svg>
